<?xml version="1.0" encoding="UTF-8"?>
<!DOCTYPE svg PUBLIC "-//W3C//DTD SVG 1.1//EN" "http://www.w3.org/Graphics/SVG/1.1/DTD/svg11.dtd">
<svg xmlns="http://www.w3.org/2000/svg" version="1.1" width="217px" height="250px" style="shape-rendering:geometricPrecision; text-rendering:geometricPrecision; image-rendering:optimizeQuality; fill-rule:evenodd; clip-rule:evenodd" xmlns:xlink="http://www.w3.org/1999/xlink">
<g><path style="opacity:0.015" fill="#fefffe" d="M 17.5,20.5 C 21.4144,20.9798 25.0811,22.1465 28.5,24C 26.1667,24.3333 23.8333,24.6667 21.5,25C 20.6198,26.3561 20.2865,27.8561 20.5,29.5C 19.5,29.5 18.5,29.5 17.5,29.5C 17.5,26.5 17.5,23.5 17.5,20.5 Z"/></g>
<g><path style="opacity:0.004" fill="#fefffe" d="M 106.5,26.5 C 106.369,25.7611 106.536,25.0944 107,24.5C 107.692,25.4368 107.525,26.1034 106.5,26.5 Z"/></g>
<g><path style="opacity:0.004" fill="#f4fffe" d="M 106.5,26.5 C 105.833,27.1667 105.833,27.1667 106.5,26.5 Z"/></g>
<g><path style="opacity:0.018" fill="#fefffe" d="M 203.5,27.5 C 204.721,26.5354 206.054,26.702 207.5,28C 205.923,29.93 204.59,29.7633 203.5,27.5 Z"/></g>
<g><path style="opacity:1" fill="#def6bf" d="M 168.5,55.5 C 168.238,56.9778 168.571,58.3112 169.5,59.5C 171.845,61.5136 173.845,63.847 175.5,66.5C 174.443,66.9059 173.109,66.9059 171.5,66.5C 171.719,65.325 171.386,64.325 170.5,63.5C 169.274,64.3629 167.94,64.3629 166.5,63.5C 140.939,40.0534 111.606,33.7201 78.5,44.5C 75.1667,45.8333 71.8333,47.1667 68.5,48.5C 65.0768,49.6749 61.7435,50.3416 58.5,50.5C 58.1667,50.3333 57.8333,50.1667 57.5,50C 58.8333,49 60.1667,48 61.5,47C 61.2716,46.6012 60.9382,46.4346 60.5,46.5C 68.231,41.6321 76.5644,37.7987 85.5,35C 91.907,33.988 98.2404,32.6546 104.5,31C 104.167,30.6667 103.833,30.3333 103.5,30C 106.356,28.0936 108.023,28.927 108.5,32.5C 124.663,32.4575 139.663,36.6242 153.5,45C 158.398,48.7451 163.398,52.2451 168.5,55.5 Z"/></g>
<g><path style="opacity:0.016" fill="#b3a5ee" d="M 193.5,46.5 C 192.833,46.1667 192.167,45.8333 191.5,45.5C 190.833,45.5 190.167,45.5 189.5,45.5C 188.295,44.3143 186.961,44.3143 185.5,45.5C 187.321,43.1425 189.655,42.8092 192.5,44.5C 193.298,44.9569 193.631,45.6236 193.5,46.5 Z"/></g>
<g><path style="opacity:1" fill="#141b42" d="M 166.5,63.5 C 182.172,79.1867 190.506,98.1867 191.5,120.5C 191.343,129.599 190.343,138.599 188.5,147.5C 185.685,156.137 182.018,164.471 177.5,172.5C 177.167,172.5 176.833,172.5 176.5,172.5C 177.748,167.762 179.414,163.095 181.5,158.5C 181.167,157.833 180.833,157.167 180.5,156.5C 179.039,158.47 177.373,160.137 175.5,161.5C 175.5,161.167 175.5,160.833 175.5,160.5C 177.025,158.784 178.025,156.784 178.5,154.5C 180.31,151.855 181.31,148.855 181.5,145.5C 182.117,145.389 182.617,145.056 183,144.5C 183.497,141.854 183.664,139.187 183.5,136.5C 184.997,132.777 185.663,128.777 185.5,124.5C 185.497,121.645 185.164,118.978 184.5,116.5C 183.889,108.685 181.889,101.351 178.5,94.5C 178.065,91.8427 177.065,89.5093 175.5,87.5C 174.331,84.4887 172.664,81.822 170.5,79.5C 157.591,61.3649 139.925,50.8649 117.5,48C 109.5,47.3333 101.5,47.3333 93.5,48C 90.8958,48.3903 88.5625,49.2237 86.5,50.5C 83.6592,50.5597 80.9925,51.2264 78.5,52.5C 74.1194,51.7077 73.7861,50.541 77.5,49C 77.1667,48.6667 76.8333,48.3333 76.5,48C 77.8228,47.1841 78.4894,46.0174 78.5,44.5C 111.606,33.7201 140.939,40.0534 166.5,63.5 Z"/></g>
<g><path style="opacity:0.051" fill="#c4ffff" d="M 189.5,45.5 C 188.077,46.4485 186.577,47.4485 185,48.5C 183.209,47.3676 183.375,46.3676 185.5,45.5C 186.961,44.3143 188.295,44.3143 189.5,45.5 Z"/></g>
<g><path style="opacity:1" fill="#d786ee" d="M 164.5,76.5 C 163.761,76.369 163.094,76.5357 162.5,77C 163.696,77.6543 163.696,78.1543 162.5,78.5C 157.03,76.6805 151.197,75.0139 145,73.5C 143.145,72.756 141.479,71.756 140,70.5C 138.234,71.2335 136.401,71.5668 134.5,71.5C 134.5,70.1667 134.5,68.8333 134.5,67.5C 133.022,67.762 131.689,67.4287 130.5,66.5C 128.951,62.8303 126.451,61.8303 123,63.5C 115.308,58.533 106.808,56.033 97.5,56C 95.8956,54.7635 94.229,53.5968 92.5,52.5C 93.376,51.7492 94.376,51.2492 95.5,51C 93.735,50.3603 92.0683,50.5269 90.5,51.5C 86.3425,51.3316 82.3425,51.9983 78.5,53.5C 78.5,53.1667 78.5,52.8333 78.5,52.5C 80.9925,51.2264 83.6592,50.5597 86.5,50.5C 94.7431,49.5361 102.91,49.2028 111,49.5C 111.494,51.1341 111.66,52.8008 111.5,54.5C 114.6,53.7268 117.6,53.3935 120.5,53.5C 124.133,55.9539 128.133,57.6206 132.5,58.5C 132.5,59.8333 132.5,61.1667 132.5,62.5C 137.007,63.3892 141.507,64.3892 146,65.5C 148.769,68.3109 152.102,69.9776 156,70.5C 157.395,69.1854 158.395,69.5188 159,71.5C 162.692,70.6756 164.525,72.3422 164.5,76.5 Z"/></g>
<g><path style="opacity:1" fill="#d892e9" d="M 170.5,79.5 C 168.947,77.615 166.947,76.615 164.5,76.5C 164.525,72.3422 162.692,70.6756 159,71.5C 158.395,69.5188 157.395,69.1854 156,70.5C 152.102,69.9776 148.769,68.3109 146,65.5C 141.507,64.3892 137.007,63.3892 132.5,62.5C 132.5,61.1667 132.5,59.8333 132.5,58.5C 128.133,57.6206 124.133,55.9539 120.5,53.5C 117.6,53.3935 114.6,53.7268 111.5,54.5C 111.66,52.8008 111.494,51.1341 111,49.5C 102.91,49.2028 94.7431,49.5361 86.5,50.5C 88.5625,49.2237 90.8958,48.3903 93.5,48C 101.5,47.3333 109.5,47.3333 117.5,48C 139.925,50.8649 157.591,61.3649 170.5,79.5 Z"/></g>
<g><path style="opacity:1" fill="#cf78ef" d="M 90.5,51.5 C 91.4348,53.8614 92.7682,56.0281 94.5,58C 97.8273,58.6103 101.161,59.1103 104.5,59.5C 104.657,61.8176 105.824,63.4843 108,64.5C 112.78,63.1001 116.947,64.6001 120.5,69C 123.167,69.3333 125.833,69.6667 128.5,70C 133.573,73.3037 138.906,76.1371 144.5,78.5C 145.167,79.5 145.833,80.5 146.5,81.5C 148.709,80.8938 150.876,80.2272 153,79.5C 154.8,81.8307 156.8,81.8307 159,79.5C 161.867,79.5664 164.7,79.5664 167.5,79.5C 169.854,82.5211 172.521,85.1877 175.5,87.5C 177.065,89.5093 178.065,91.8427 178.5,94.5C 176.306,92.7981 174.64,90.6314 173.5,88C 172.5,87.6667 171.5,87.3333 170.5,87C 163.783,86.7962 157.117,86.2962 150.5,85.5C 149.5,86 148.5,86.5 147.5,87C 148.536,88.7755 148.536,90.6089 147.5,92.5C 145.017,89.2586 141.684,87.5919 137.5,87.5C 137.5,86.8333 137.833,86.5 138.5,86.5C 140.958,86.7725 142.625,85.7725 143.5,83.5C 140.156,82.6359 137.489,80.8026 135.5,78C 132.235,77.8026 129.401,76.6359 127,74.5C 126.586,74.9574 126.086,75.2907 125.5,75.5C 121.746,71.4404 117.079,69.4404 111.5,69.5C 110.24,68.6184 109.074,67.6184 108,66.5C 105.667,69.1667 103.333,69.1667 101,66.5C 99.984,67.6341 99.3173,67.3008 99,65.5C 98.6667,65.8333 98.3333,66.1667 98,66.5C 97.5172,65.552 97.3505,64.552 97.5,63.5C 96.1667,63.5 94.8333,63.5 93.5,63.5C 93.3491,60.2819 92.5158,59.9485 91,62.5C 86.5823,60.193 82.4156,57.5263 78.5,54.5C 77.8076,55.0253 77.3076,55.6919 77,56.5C 76.2825,55.5494 75.4491,55.3828 74.5,56C 75.6956,56.6543 75.6956,57.1543 74.5,57.5C 73.5832,56.8728 72.5832,56.5394 71.5,56.5C 73.5093,54.9348 75.8427,53.9348 78.5,53.5C 82.3425,51.9983 86.3425,51.3316 90.5,51.5 Z"/></g>
<g><path style="opacity:0.161" fill="#c098b5" d="M 191.5,45.5 C 192.167,45.8333 192.833,46.1667 193.5,46.5C 195.728,52.9932 193.394,56.6598 186.5,57.5C 184.208,56.2101 182.208,54.5435 180.5,52.5C 180.181,50.2495 180.681,48.2495 182,46.5C 182.49,47.7932 182.657,49.1266 182.5,50.5C 182.833,51.1667 183.167,51.8333 183.5,52.5C 187.927,56.9821 191.26,56.1488 193.5,50C 190.985,49.0611 190.318,47.5611 191.5,45.5 Z"/></g>
<g><path style="opacity:0.024" fill="#bcffff" d="M 183.5,52.5 C 183.167,51.8333 182.833,51.1667 182.5,50.5C 183.117,50.3893 183.617,50.056 184,49.5C 184.74,50.7494 184.573,51.7494 183.5,52.5 Z"/></g>
<g><path style="opacity:1" fill="#9cf2c6" d="M 60.5,46.5 C 60.9382,46.4346 61.2716,46.6012 61.5,47C 60.1667,48 58.8333,49 57.5,50C 57.8333,50.1667 58.1667,50.3333 58.5,50.5C 61.7435,50.3416 65.0768,49.6749 68.5,48.5C 54.9224,56.7431 43.5891,67.4098 34.5,80.5C 33.4168,80.5394 32.4168,80.8728 31.5,81.5C 31.1667,81 30.8333,80.5 30.5,80C 31.6886,78.1052 32.6886,76.1052 33.5,74C 33.2716,73.6012 32.9382,73.4346 32.5,73.5C 36.6925,66.494 41.8592,60.1606 48,54.5C 48.4828,53.552 48.6495,52.552 48.5,51.5C 51.1779,50.9992 53.1779,49.4992 54.5,47C 56.6023,47.256 58.6023,47.0893 60.5,46.5 Z"/></g>
<g><path style="opacity:0.059" fill="#021fd9" d="M 177.5,54.5 C 177.5,55.5 177.5,56.5 177.5,57.5C 180.077,57.4551 182.077,58.4551 183.5,60.5C 179.258,62.1349 176.258,60.8015 174.5,56.5C 175.778,56.2178 176.778,55.5511 177.5,54.5 Z"/></g>
<g><path style="opacity:0.082" fill="#2a5ae5" d="M 169.5,56.5 C 171.167,57.8333 172.833,57.8333 174.5,56.5C 176.258,60.8015 179.258,62.1349 183.5,60.5C 183.381,63.3434 182.714,66.3434 181.5,69.5C 177.528,65.1927 173.528,60.8593 169.5,56.5 Z"/></g>
<g><path style="opacity:0.041" fill="#100582" d="M 180.5,52.5 C 182.208,54.5435 184.208,56.2101 186.5,57.5C 185.5,58.5 184.5,59.5 183.5,60.5C 182.077,58.4551 180.077,57.4551 177.5,57.5C 177.5,56.5 177.5,55.5 177.5,54.5C 179.027,54.573 180.027,53.9063 180.5,52.5 Z"/></g>
<g><path style="opacity:1" fill="#b95bf3" d="M 87.5,74.5 C 86.5084,74.3284 85.8417,74.6618 85.5,75.5C 80.5528,77.4481 76.8862,80.7815 74.5,85.5C 74.719,84.325 74.3857,83.325 73.5,82.5C 70.6875,83.2193 67.8541,83.886 65,84.5C 64.0546,84.0946 63.3879,83.428 63,82.5C 62.3333,83.8333 61.3333,84.8333 60,85.5C 59.3828,84.5509 59.5494,83.7175 60.5,83C 58.5975,82.8008 57.0975,81.9675 56,80.5C 55.6667,80.8333 55.3333,81.1667 55,81.5C 53.2613,79.7166 51.4279,78.0499 49.5,76.5C 47.4038,77.6197 47.0705,79.1197 48.5,81C 47.2068,81.49 45.8734,81.6567 44.5,81.5C 48.0549,75.2729 52.7216,69.9396 58.5,65.5C 60.8614,64.5652 63.0281,63.2318 65,61.5C 66.821,63.287 68.9877,64.6203 71.5,65.5C 73.1563,63.9776 74.323,64.311 75,66.5C 76.7985,66.2795 78.6318,65.9461 80.5,65.5C 83.4883,67.4897 86.1549,69.8231 88.5,72.5C 88.1373,73.1835 87.8039,73.8501 87.5,74.5 Z"/></g>
<g><path style="opacity:1" fill="#c970f0" d="M 138.5,86.5 C 139.263,85.7321 140.263,85.2321 141.5,85C 136.624,83.8839 131.79,82.7172 127,81.5C 125.601,81.5012 124.101,81.8346 122.5,82.5C 117.743,80.0384 112.91,77.7051 108,75.5C 106.665,78.2237 106.498,80.8904 107.5,83.5C 102.637,76.6507 95.97,73.6507 87.5,74.5C 87.8039,73.8501 88.1373,73.1835 88.5,72.5C 86.1549,69.8231 83.4883,67.4897 80.5,65.5C 78.6318,65.9461 76.7985,66.2795 75,66.5C 74.323,64.311 73.1563,63.9776 71.5,65.5C 68.9877,64.6203 66.821,63.287 65,61.5C 63.0281,63.2318 60.8614,64.5652 58.5,65.5C 62.0013,61.3375 66.3346,58.3375 71.5,56.5C 72.5832,56.5394 73.5832,56.8728 74.5,57.5C 75.6956,57.1543 75.6956,56.6543 74.5,56C 75.4491,55.3828 76.2825,55.5494 77,56.5C 77.3076,55.6919 77.8076,55.0253 78.5,54.5C 82.4156,57.5263 86.5823,60.193 91,62.5C 92.5158,59.9485 93.3491,60.2819 93.5,63.5C 94.8333,63.5 96.1667,63.5 97.5,63.5C 97.3505,64.552 97.5172,65.552 98,66.5C 98.3333,66.1667 98.6667,65.8333 99,65.5C 99.3173,67.3008 99.984,67.6341 101,66.5C 103.333,69.1667 105.667,69.1667 108,66.5C 109.074,67.6184 110.24,68.6184 111.5,69.5C 117.079,69.4404 121.746,71.4404 125.5,75.5C 126.086,75.2907 126.586,74.9574 127,74.5C 129.401,76.6359 132.235,77.8026 135.5,78C 137.489,80.8026 140.156,82.6359 143.5,83.5C 142.625,85.7725 140.958,86.7725 138.5,86.5 Z"/></g>
<g><path style="opacity:1" fill="#d381ef" d="M 164.5,76.5 C 166.947,76.615 168.947,77.615 170.5,79.5C 172.664,81.822 174.331,84.4887 175.5,87.5C 172.521,85.1877 169.854,82.5211 167.5,79.5C 164.7,79.5664 161.867,79.5664 159,79.5C 156.8,81.8307 154.8,81.8307 153,79.5C 150.876,80.2272 148.709,80.8938 146.5,81.5C 145.833,80.5 145.167,79.5 144.5,78.5C 138.906,76.1371 133.573,73.3037 128.5,70C 125.833,69.6667 123.167,69.3333 120.5,69C 116.947,64.6001 112.78,63.1001 108,64.5C 105.824,63.4843 104.657,61.8176 104.5,59.5C 101.161,59.1103 97.8273,58.6103 94.5,58C 92.7682,56.0281 91.4348,53.8614 90.5,51.5C 92.0683,50.5269 93.735,50.3603 95.5,51C 94.376,51.2492 93.376,51.7492 92.5,52.5C 94.229,53.5968 95.8956,54.7635 97.5,56C 106.808,56.033 115.308,58.533 123,63.5C 126.451,61.8303 128.951,62.8303 130.5,66.5C 131.689,67.4287 133.022,67.762 134.5,67.5C 134.5,68.8333 134.5,70.1667 134.5,71.5C 136.401,71.5668 138.234,71.2335 140,70.5C 141.479,71.756 143.145,72.756 145,73.5C 151.197,75.0139 157.03,76.6805 162.5,78.5C 163.696,78.1543 163.696,77.6543 162.5,77C 163.094,76.5357 163.761,76.369 164.5,76.5 Z"/></g>
<g><path style="opacity:1" fill="#15193e" d="M 78.5,44.5 C 78.4894,46.0174 77.8228,47.1841 76.5,48C 76.8333,48.3333 77.1667,48.6667 77.5,49C 73.7861,50.541 74.1194,51.7077 78.5,52.5C 78.5,52.8333 78.5,53.1667 78.5,53.5C 75.8427,53.9348 73.5093,54.9348 71.5,56.5C 66.3346,58.3375 62.0013,61.3375 58.5,65.5C 52.7216,69.9396 48.0549,75.2729 44.5,81.5C 37.8173,89.1805 33.8173,98.1805 32.5,108.5C 31.469,110.961 30.8023,113.627 30.5,116.5C 30.5,118.5 30.5,120.5 30.5,122.5C 30.5,125.167 30.5,127.833 30.5,130.5C 30.5,132.167 30.5,133.833 30.5,135.5C 29.6728,130.015 29.1728,124.348 29,118.5C 25.217,121.93 23.717,126.264 24.5,131.5C 24.1667,131.5 23.8333,131.5 23.5,131.5C 23.3773,123.13 23.8773,114.797 25,106.5C 27.2815,97.4868 30.4482,88.8201 34.5,80.5C 43.5891,67.4098 54.9224,56.7431 68.5,48.5C 71.8333,47.1667 75.1667,45.8333 78.5,44.5 Z"/></g>
<g><path style="opacity:1" fill="#111a44" d="M 87.5,74.5 C 95.97,73.6507 102.637,76.6507 107.5,83.5C 107.704,85.6854 108.37,87.6854 109.5,89.5C 108.883,89.6107 108.383,89.944 108,90.5C 107.774,93.095 107.274,95.595 106.5,98C 107.408,104.73 107.741,111.397 107.5,118C 106.043,119.697 104.377,121.197 102.5,122.5C 101.833,130.657 101.167,138.657 100.5,146.5C 100.5,137.167 100.5,127.833 100.5,118.5C 100.666,109.161 100.5,99.8274 100,90.5C 96.7219,83.0442 91.8886,81.7109 85.5,86.5C 83.7376,87.2623 82.7376,88.5956 82.5,90.5C 81.5041,90.4142 80.6708,90.7476 80,91.5C 79.5026,94.146 79.3359,96.8127 79.5,99.5C 78.1667,99.5 76.8333,99.5 75.5,99.5C 74.0403,89.3243 77.3736,81.3243 85.5,75.5C 85.8417,74.6618 86.5084,74.3284 87.5,74.5 Z"/></g>
<g><path style="opacity:1" fill="#cdf8d2" d="M 168.5,55.5 C 169.167,55.5 169.5,55.8333 169.5,56.5C 173.528,60.8593 177.528,65.1927 181.5,69.5C 189.591,82.7677 194.924,97.1011 197.5,112.5C 196.686,114.631 196.186,116.964 196,119.5C 195.667,117.833 195.333,116.167 195,114.5C 194.4,116.91 193.234,118.91 191.5,120.5C 190.506,98.1867 182.172,79.1867 166.5,63.5C 167.94,64.3629 169.274,64.3629 170.5,63.5C 171.386,64.325 171.719,65.325 171.5,66.5C 173.109,66.9059 174.443,66.9059 175.5,66.5C 173.845,63.847 171.845,61.5136 169.5,59.5C 168.571,58.3112 168.238,56.9778 168.5,55.5 Z"/></g>
<g><path style="opacity:1" fill="#9949f3" d="M 74.5,85.5 C 73.5729,95.7944 73.2396,106.128 73.5,116.5C 67.5,116.5 61.5,116.5 55.5,116.5C 47.1667,116.5 38.8333,116.5 30.5,116.5C 30.8023,113.627 31.469,110.961 32.5,108.5C 33.8173,98.1805 37.8173,89.1805 44.5,81.5C 45.8734,81.6567 47.2068,81.49 48.5,81C 47.0705,79.1197 47.4038,77.6197 49.5,76.5C 51.4279,78.0499 53.2613,79.7166 55,81.5C 55.3333,81.1667 55.6667,80.8333 56,80.5C 57.0975,81.9675 58.5975,82.8008 60.5,83C 59.5494,83.7175 59.3828,84.5509 60,85.5C 61.3333,84.8333 62.3333,83.8333 63,82.5C 63.3879,83.428 64.0546,84.0946 65,84.5C 67.8541,83.886 70.6875,83.2193 73.5,82.5C 74.3857,83.325 74.719,84.325 74.5,85.5 Z"/></g>
<g><path style="opacity:1" fill="#bc60ef" d="M 138.5,86.5 C 137.833,86.5 137.5,86.8333 137.5,87.5C 130.518,88.4995 127.851,92.4995 129.5,99.5C 128.527,97.0521 128.194,94.3854 128.5,91.5C 123.12,92.3334 117.786,91.8334 112.5,90C 111.874,89.2496 111.374,88.4162 111,87.5C 110.5,97.1609 110.334,106.828 110.5,116.5C 110.167,116.5 109.833,116.5 109.5,116.5C 109.5,107.5 109.5,98.5 109.5,89.5C 108.37,87.6854 107.704,85.6854 107.5,83.5C 106.498,80.8904 106.665,78.2237 108,75.5C 112.91,77.7051 117.743,80.0384 122.5,82.5C 124.101,81.8346 125.601,81.5012 127,81.5C 131.79,82.7172 136.624,83.8839 141.5,85C 140.263,85.2321 139.263,85.7321 138.5,86.5 Z"/></g>
<g><path style="opacity:1" fill="#10174f" d="M 137.5,87.5 C 141.684,87.5919 145.017,89.2586 147.5,92.5C 147.5,94.1667 147.5,95.8333 147.5,97.5C 145.78,101.22 143.113,103.887 139.5,105.5C 134.887,105.531 131.553,103.531 129.5,99.5C 127.851,92.4995 130.518,88.4995 137.5,87.5 Z"/></g>
<g><path style="opacity:1" fill="#9feacb" d="M 100.5,118.5 C 100.167,118.5 99.8333,118.5 99.5,118.5C 99.6659,113.489 99.4993,108.489 99,103.5C 94.7507,101.422 90.2507,99.922 85.5,99C 84.5495,95.9433 84.2161,92.7766 84.5,89.5C 85.404,88.791 85.7373,87.791 85.5,86.5C 91.8886,81.7109 96.7219,83.0442 100,90.5C 100.5,99.8274 100.666,109.161 100.5,118.5 Z"/></g>
<g><path style="opacity:1" fill="#b961f2" d="M 178.5,94.5 C 181.889,101.351 183.889,108.685 184.5,116.5C 164.167,116.5 143.833,116.5 123.5,116.5C 125.265,115.539 127.265,115.205 129.5,115.5C 147.167,115.5 164.833,115.5 182.5,115.5C 181.068,110.621 179.234,105.954 177,101.5C 175.301,100.594 173.467,100.261 171.5,100.5C 171.617,102.484 170.95,104.15 169.5,105.5C 165.975,104.688 162.308,103.854 158.5,103C 154.667,100.5 151.5,97.3333 149,93.5C 148.79,95.0581 148.29,96.3915 147.5,97.5C 147.5,95.8333 147.5,94.1667 147.5,92.5C 148.536,90.6089 148.536,88.7755 147.5,87C 148.5,86.5 149.5,86 150.5,85.5C 157.117,86.2962 163.783,86.7962 170.5,87C 171.5,87.3333 172.5,87.6667 173.5,88C 174.64,90.6314 176.306,92.7981 178.5,94.5 Z"/></g>
<g><path style="opacity:1" fill="#843af7" d="M 32.5,108.5 C 33.6005,106.723 34.4338,104.723 35,102.5C 37.5682,101.62 38.0682,100.12 36.5,98C 37.3169,96.51 38.1502,95.01 39,93.5C 39.8452,96.4122 41.5118,97.4122 44,96.5C 46.0429,98.5206 48.0429,98.8539 50,97.5C 53.2812,99.8803 56.6145,99.8803 60,97.5C 60.3333,98.1667 60.6667,98.8333 61,99.5C 61.6667,98.1667 62.3333,98.1667 63,99.5C 64.3316,98.8384 65.4982,97.6718 66.5,96C 66.1667,95.6667 65.8333,95.3333 65.5,95C 66.8989,94.4054 68.2322,94.5721 69.5,95.5C 70.2715,93.1378 71.1048,90.8045 72,88.5C 72.4998,97.4938 72.6664,106.494 72.5,115.5C 59.4957,115.667 46.4957,115.5 33.5,115C 32.5769,112.959 32.2436,110.792 32.5,108.5 Z"/></g>
<g><path style="opacity:1" fill="#9f42f6" d="M 129.5,99.5 C 131.553,103.531 134.887,105.531 139.5,105.5C 140.043,105.56 140.376,105.893 140.5,106.5C 138.189,108.648 135.522,110.148 132.5,111C 131.167,111.667 131.167,112.333 132.5,113C 131.429,113.852 130.429,114.685 129.5,115.5C 127.265,115.205 125.265,115.539 123.5,116.5C 119.167,116.5 114.833,116.5 110.5,116.5C 110.334,106.828 110.5,97.1609 111,87.5C 111.374,88.4162 111.874,89.2496 112.5,90C 117.786,91.8334 123.12,92.3334 128.5,91.5C 128.194,94.3854 128.527,97.0521 129.5,99.5 Z"/></g>
<g><path style="opacity:1" fill="#a14cf5" d="M 129.5,115.5 C 130.429,114.685 131.429,113.852 132.5,113C 131.167,112.333 131.167,111.667 132.5,111C 135.522,110.148 138.189,108.648 140.5,106.5C 140.376,105.893 140.043,105.56 139.5,105.5C 143.113,103.887 145.78,101.22 147.5,97.5C 148.29,96.3915 148.79,95.0581 149,93.5C 151.5,97.3333 154.667,100.5 158.5,103C 162.308,103.854 165.975,104.688 169.5,105.5C 170.95,104.15 171.617,102.484 171.5,100.5C 173.467,100.261 175.301,100.594 177,101.5C 179.234,105.954 181.068,110.621 182.5,115.5C 164.833,115.5 147.167,115.5 129.5,115.5 Z"/></g>
<g><path style="opacity:1" fill="#67f2e1" d="M 84.5,89.5 C 84.2161,92.7766 84.5495,95.9433 85.5,99C 90.2507,99.922 94.7507,101.422 99,103.5C 99.4993,108.489 99.6659,113.489 99.5,118.5C 99.7014,127.208 99.2014,135.875 98,144.5C 93.6917,140.863 89.3583,137.196 85,133.5C 83.8651,125.933 83.3651,118.266 83.5,110.5C 83.5003,103.325 83.8337,96.3252 84.5,89.5 Z"/></g>
<g><path style="opacity:1" fill="#74e3e2" d="M 32.5,73.5 C 32.9382,73.4346 33.2716,73.6012 33.5,74C 32.6886,76.1052 31.6886,78.1052 30.5,80C 30.8333,80.5 31.1667,81 31.5,81.5C 32.4168,80.8728 33.4168,80.5394 34.5,80.5C 30.4482,88.8201 27.2815,97.4868 25,106.5C 23.8773,114.797 23.3773,123.13 23.5,131.5C 23.6106,133.648 22.944,133.981 21.5,132.5C 20.8333,131.167 20.1667,129.833 19.5,128.5C 18.3037,130.145 17.3037,131.811 16.5,133.5C 15.2898,126.997 14.2898,120.497 13.5,114C 14.7659,113.691 15.9326,113.191 17,112.5C 19.4589,98.2746 24.6256,85.2746 32.5,73.5 Z"/></g>
<g><path style="opacity:1" fill="#e5cacc" d="M 30.5,116.5 C 38.8333,116.5 47.1667,116.5 55.5,116.5C 60.317,118.411 65.317,119.911 70.5,121C 57.9932,121.169 45.6599,121.669 33.5,122.5C 32.5,122.5 31.5,122.5 30.5,122.5C 30.5,120.5 30.5,118.5 30.5,116.5 Z"/></g>
<g><path style="opacity:0.004" fill="#eefffe" d="M 205.5,116.5 C 206.833,117.167 206.833,117.167 205.5,116.5 Z"/></g>
<g><path style="opacity:1" fill="#e7e1c3" d="M 109.5,116.5 C 109.833,116.5 110.167,116.5 110.5,116.5C 114.833,116.5 119.167,116.5 123.5,116.5C 143.833,116.5 164.167,116.5 184.5,116.5C 184.5,118.5 184.5,120.5 184.5,122.5C 159.833,122.5 135.167,122.5 110.5,122.5C 110.167,122.5 109.833,122.5 109.5,122.5C 109.5,120.5 109.5,118.5 109.5,116.5 Z"/></g>
<g><path style="opacity:0.031" fill="#aad6ff" d="M 205.5,117.5 C 204.32,119.913 202.32,120.913 199.5,120.5C 199.768,122.099 199.434,123.432 198.5,124.5C 198.5,121.5 198.5,118.5 198.5,115.5C 199.117,115.389 199.617,115.056 200,114.5C 201.488,116.16 203.321,117.16 205.5,117.5 Z"/></g>
<g><path style="opacity:1" fill="#ebcead" d="M 55.5,116.5 C 61.5,116.5 67.5,116.5 73.5,116.5C 73.5,118.5 73.5,120.5 73.5,122.5C 60.1667,122.5 46.8333,122.5 33.5,122.5C 45.6599,121.669 57.9932,121.169 70.5,121C 65.317,119.911 60.317,118.411 55.5,116.5 Z"/></g>
<g><path style="opacity:1" fill="#5634f6" d="M 30.5,122.5 C 31.5,122.5 32.5,122.5 33.5,122.5C 46.8333,122.5 60.1667,122.5 73.5,122.5C 73.5,125.167 73.5,127.833 73.5,130.5C 59.1667,130.5 44.8333,130.5 30.5,130.5C 30.5,127.833 30.5,125.167 30.5,122.5 Z"/></g>
<g><path style="opacity:1" fill="#693bf6" d="M 110.5,122.5 C 135.167,122.5 159.833,122.5 184.5,122.5C 184.5,125.167 184.5,127.833 184.5,130.5C 159.833,130.5 135.167,130.5 110.5,130.5C 110.5,127.833 110.5,125.167 110.5,122.5 Z"/></g>
<g><path style="opacity:1" fill="#a187ee" d="M 109.5,122.5 C 109.833,122.5 110.167,122.5 110.5,122.5C 110.5,125.167 110.5,127.833 110.5,130.5C 135.167,130.5 159.833,130.5 184.5,130.5C 159.672,131.498 134.672,131.831 109.5,131.5C 109.5,128.5 109.5,125.5 109.5,122.5 Z"/></g>
<g><path style="opacity:1" fill="#b9cee9" d="M 30.5,130.5 C 44.8333,130.5 59.1667,130.5 73.5,130.5C 73.5,132.5 73.5,134.5 73.5,136.5C 59.1667,136.5 44.8333,136.5 30.5,136.5C 30.5,136.167 30.5,135.833 30.5,135.5C 30.5,133.833 30.5,132.167 30.5,130.5 Z"/></g>
<g><path style="opacity:1" fill="#dad4e1" d="M 184.5,116.5 C 185.164,118.978 185.497,121.645 185.5,124.5C 185.663,128.777 184.997,132.777 183.5,136.5C 158.833,136.5 134.167,136.5 109.5,136.5C 109.5,134.833 109.5,133.167 109.5,131.5C 134.672,131.831 159.672,131.498 184.5,130.5C 184.5,127.833 184.5,125.167 184.5,122.5C 184.5,120.5 184.5,118.5 184.5,116.5 Z"/></g>
<g><path style="opacity:1" fill="#4e3df5" d="M 73.5,137.5 C 73.5,140.167 73.5,142.833 73.5,145.5C 70.1667,145.5 66.8333,145.5 63.5,145.5C 61.3021,144.835 58.9688,144.168 56.5,143.5C 57.9079,142.757 59.2412,141.923 60.5,141C 56.4266,140.488 52.4266,139.655 48.5,138.5C 56.8068,137.502 65.1401,137.169 73.5,137.5 Z"/></g>
<g><path style="opacity:1" fill="#5d49f3" d="M 109.5,136.5 C 134.167,136.5 158.833,136.5 183.5,136.5C 183.664,139.187 183.497,141.854 183,144.5C 182.617,145.056 182.117,145.389 181.5,145.5C 170.167,145.5 158.833,145.5 147.5,145.5C 145.371,143.05 142.704,141.383 139.5,140.5C 138.737,139.732 137.737,139.232 136.5,139C 127.111,139.144 118.111,138.31 109.5,136.5 Z"/></g>
<g><path style="opacity:1" fill="#9cf6e0" d="M 197.5,112.5 C 198.11,113.391 198.443,114.391 198.5,115.5C 198.5,118.5 198.5,121.5 198.5,124.5C 198.261,128.842 197.927,133.176 197.5,137.5C 195.705,142.595 193.872,147.929 192,153.5C 191.667,152.167 191.333,150.833 191,149.5C 189.187,150.609 188.354,149.942 188.5,147.5C 190.343,138.599 191.343,129.599 191.5,120.5C 193.234,118.91 194.4,116.91 195,114.5C 195.333,116.167 195.667,117.833 196,119.5C 196.186,116.964 196.686,114.631 197.5,112.5 Z"/></g>
<g><path style="opacity:1" fill="#5c5af1" d="M 30.5,136.5 C 44.8333,136.5 59.1667,136.5 73.5,136.5C 73.5,136.833 73.5,137.167 73.5,137.5C 65.1401,137.169 56.8068,137.502 48.5,138.5C 52.4266,139.655 56.4266,140.488 60.5,141C 59.2412,141.923 57.9079,142.757 56.5,143.5C 58.9688,144.168 61.3021,144.835 63.5,145.5C 53.5,145.5 43.5,145.5 33.5,145.5C 32.1251,142.627 31.1251,139.627 30.5,136.5 Z"/></g>
<g><path style="opacity:1" fill="#0a1538" d="M 85.5,75.5 C 77.3736,81.3243 74.0403,89.3243 75.5,99.5C 76.8333,99.5 78.1667,99.5 79.5,99.5C 79.3359,96.8127 79.5026,94.146 80,91.5C 80.6708,90.7476 81.5041,90.4142 82.5,90.5C 82.5,106.167 82.5,121.833 82.5,137.5C 80.1668,136.659 78.8335,134.992 78.5,132.5C 79.3856,125.821 79.8856,119.155 80,112.5C 78.3646,111.151 76.8646,111.318 75.5,113C 76.1737,114.751 76.507,116.417 76.5,118C 74.5417,124.148 74.5417,130.148 76.5,136C 76.1131,143.481 75.7798,150.981 75.5,158.5C 76.9771,162.269 78.6437,165.936 80.5,169.5C 79.5,168.833 78.5,168.167 77.5,167.5C 76.3503,164.702 75.017,162.035 73.5,159.5C 73.5,157.167 73.5,154.833 73.5,152.5C 73.5,150.167 73.5,147.833 73.5,145.5C 73.5,142.833 73.5,140.167 73.5,137.5C 73.5,137.167 73.5,136.833 73.5,136.5C 73.5,134.5 73.5,132.5 73.5,130.5C 73.5,127.833 73.5,125.167 73.5,122.5C 73.5,120.5 73.5,118.5 73.5,116.5C 73.2396,106.128 73.5729,95.7944 74.5,85.5C 76.8862,80.7815 80.5528,77.4481 85.5,75.5 Z"/></g>
<g><path style="opacity:1" fill="#0c1537" d="M 109.5,89.5 C 109.5,98.5 109.5,107.5 109.5,116.5C 109.5,118.5 109.5,120.5 109.5,122.5C 109.5,125.5 109.5,128.5 109.5,131.5C 109.5,133.167 109.5,134.833 109.5,136.5C 118.111,138.31 127.111,139.144 136.5,139C 137.737,139.232 138.737,139.732 139.5,140.5C 131.478,139.5 123.478,139.833 115.5,141.5C 116.364,143.197 117.697,144.363 119.5,145C 123.795,145.912 128.128,146.579 132.5,147C 133.056,147.383 133.389,147.883 133.5,148.5C 124.5,148.5 115.5,148.5 106.5,148.5C 103.918,148.975 101.918,148.308 100.5,146.5C 101.167,138.657 101.833,130.657 102.5,122.5C 104.377,121.197 106.043,119.697 107.5,118C 107.741,111.397 107.408,104.73 106.5,98C 107.274,95.595 107.774,93.095 108,90.5C 108.383,89.944 108.883,89.6107 109.5,89.5 Z"/></g>
<g><path style="opacity:1" fill="#ea9fc2" d="M 147.5,145.5 C 158.833,145.5 170.167,145.5 181.5,145.5C 181.31,148.855 180.31,151.855 178.5,154.5C 178.5,153.5 178.5,152.5 178.5,151.5C 169.5,151.5 160.5,151.5 151.5,151.5C 150.18,149.537 148.846,147.537 147.5,145.5 Z"/></g>
<g><path style="opacity:1" fill="#b6c9e9" d="M 33.5,145.5 C 43.5,145.5 53.5,145.5 63.5,145.5C 66.8333,145.5 70.1667,145.5 73.5,145.5C 73.5,147.833 73.5,150.167 73.5,152.5C 61.1667,152.5 48.8333,152.5 36.5,152.5C 34.5516,150.68 33.5516,148.346 33.5,145.5 Z"/></g>
<g><path style="opacity:1" fill="#4fcde5" d="M 85.5,86.5 C 85.7373,87.791 85.404,88.791 84.5,89.5C 83.8337,96.3252 83.5003,103.325 83.5,110.5C 83.3651,118.266 83.8651,125.933 85,133.5C 89.3583,137.196 93.6917,140.863 98,144.5C 99.2014,135.875 99.7014,127.208 99.5,118.5C 99.8333,118.5 100.167,118.5 100.5,118.5C 100.5,127.833 100.5,137.167 100.5,146.5C 101.918,148.308 103.918,148.975 106.5,148.5C 104.016,149.964 104.016,151.631 106.5,153.5C 111.856,153.946 116.856,155.279 121.5,157.5C 107.217,157.193 95.8832,151.359 87.5,140C 86.2068,139.51 84.8734,139.343 83.5,139.5C 83.6716,138.508 83.3382,137.842 82.5,137.5C 82.5,121.833 82.5,106.167 82.5,90.5C 82.7376,88.5956 83.7376,87.2623 85.5,86.5 Z"/></g>
<g><path style="opacity:1" fill="#59ecee" d="M 106.5,148.5 C 115.5,148.5 124.5,148.5 133.5,148.5C 138.043,149.11 141.043,151.61 142.5,156C 142.192,157.459 141.525,158.626 140.5,159.5C 134.082,159.558 127.748,158.892 121.5,157.5C 116.856,155.279 111.856,153.946 106.5,153.5C 104.016,151.631 104.016,149.964 106.5,148.5 Z"/></g>
<g><path style="opacity:1" fill="#6db2eb" d="M 23.5,131.5 C 23.8333,131.5 24.1667,131.5 24.5,131.5C 25.2618,141.88 27.5951,151.88 31.5,161.5C 29.6023,160.911 27.6023,160.744 25.5,161C 24.7709,158.942 23.7709,157.109 22.5,155.5C 19.2764,148.616 17.2764,141.282 16.5,133.5C 17.3037,131.811 18.3037,130.145 19.5,128.5C 20.1667,129.833 20.8333,131.167 21.5,132.5C 22.944,133.981 23.6106,133.648 23.5,131.5 Z"/></g>
<g><path style="opacity:1" fill="#f167cd" d="M 151.5,151.5 C 160.5,151.5 169.5,151.5 178.5,151.5C 178.5,152.5 178.5,153.5 178.5,154.5C 178.025,156.784 177.025,158.784 175.5,160.5C 167.316,160.826 159.316,160.492 151.5,159.5C 151.5,156.833 151.5,154.167 151.5,151.5 Z"/></g>
<g><path style="opacity:1" fill="#c970f0" d="M 36.5,152.5 C 48.8333,152.5 61.1667,152.5 73.5,152.5C 73.5,154.833 73.5,157.167 73.5,159.5C 64.6939,160.772 55.6939,161.439 46.5,161.5C 44.0971,161.552 41.7638,161.219 39.5,160.5C 37.9802,158.11 36.9802,155.443 36.5,152.5 Z"/></g>
<g><path style="opacity:1" fill="#4ec7f5" d="M 83.5,139.5 C 84.8734,139.343 86.2068,139.51 87.5,140C 95.8832,151.359 107.217,157.193 121.5,157.5C 127.748,158.892 134.082,159.558 140.5,159.5C 139.833,161.5 138.5,162.833 136.5,163.5C 133.167,163.5 129.833,163.5 126.5,163.5C 120.149,161.059 113.482,159.392 106.5,158.5C 102.509,156.504 98.5089,154.504 94.5,152.5C 91.0767,149.397 87.4101,146.73 83.5,144.5C 83.5,142.833 83.5,141.167 83.5,139.5 Z"/></g>
<g><path style="opacity:1" fill="#5a88f0" d="M 82.5,137.5 C 83.3382,137.842 83.6716,138.508 83.5,139.5C 83.5,141.167 83.5,142.833 83.5,144.5C 83.5,146.833 83.5,149.167 83.5,151.5C 88.5292,151.838 91.8625,154.338 93.5,159C 96.4767,159.481 99.1433,160.648 101.5,162.5C 109.807,163.498 118.14,163.831 126.5,163.5C 129.833,163.5 133.167,163.5 136.5,163.5C 120.672,164.661 104.672,164.828 88.5,164C 87.2949,162.624 85.9616,161.458 84.5,160.5C 82.6918,152.979 82.0252,145.312 82.5,137.5 Z"/></g>
<g><path style="opacity:1" fill="#54aaf4" d="M 83.5,144.5 C 87.4101,146.73 91.0767,149.397 94.5,152.5C 98.5089,154.504 102.509,156.504 106.5,158.5C 113.482,159.392 120.149,161.059 126.5,163.5C 118.14,163.831 109.807,163.498 101.5,162.5C 99.1433,160.648 96.4767,159.481 93.5,159C 91.8625,154.338 88.5292,151.838 83.5,151.5C 83.5,149.167 83.5,146.833 83.5,144.5 Z"/></g>
<g><path style="opacity:1" fill="#ea88cf" d="M 151.5,159.5 C 159.316,160.492 167.316,160.826 175.5,160.5C 175.5,160.833 175.5,161.167 175.5,161.5C 171.218,169.434 165.551,176.1 158.5,181.5C 157.652,179.907 156.319,178.74 154.5,178C 156.811,178.155 159.144,178.155 161.5,178C 160.939,176.324 159.939,174.991 158.5,174C 160.959,173.276 161.959,171.943 161.5,170C 159.473,169.502 157.473,169.669 155.5,170.5C 153.813,170.24 152.313,169.573 151,168.5C 148.31,169.929 145.477,170.929 142.5,171.5C 146.33,168.02 149.33,164.02 151.5,159.5 Z"/></g>
<g><path style="opacity:1" fill="#d09aec" d="M 73.5,159.5 C 75.017,162.035 76.3503,164.702 77.5,167.5C 77.5858,168.496 77.2524,169.329 76.5,170C 74.0796,170.29 71.7463,170.79 69.5,171.5C 69.4226,170.25 68.756,169.417 67.5,169C 63.1279,168.579 58.7946,167.912 54.5,167C 51.9388,164.896 49.2721,163.063 46.5,161.5C 55.6939,161.439 64.6939,160.772 73.5,159.5 Z"/></g>
<g><path style="opacity:1" fill="#0c123e" d="M 139.5,140.5 C 142.704,141.383 145.371,143.05 147.5,145.5C 148.846,147.537 150.18,149.537 151.5,151.5C 151.5,154.167 151.5,156.833 151.5,159.5C 149.33,164.02 146.33,168.02 142.5,171.5C 141.833,171.5 141.167,171.5 140.5,171.5C 137.624,171.927 134.791,172.594 132,173.5C 127.798,171.556 123.798,171.556 120,173.5C 109.66,172.26 99.3271,172.26 89,173.5C 86.1182,172.642 83.6182,171.142 81.5,169C 86.4308,167.337 87.4308,164.504 84.5,160.5C 85.9616,161.458 87.2949,162.624 88.5,164C 104.672,164.828 120.672,164.661 136.5,163.5C 138.5,162.833 139.833,161.5 140.5,159.5C 141.525,158.626 142.192,157.459 142.5,156C 141.043,151.61 138.043,149.11 133.5,148.5C 133.389,147.883 133.056,147.383 132.5,147C 128.128,146.579 123.795,145.912 119.5,145C 117.697,144.363 116.364,143.197 115.5,141.5C 123.478,139.833 131.478,139.5 139.5,140.5 Z"/></g>
<g><path style="opacity:0.97" fill="#70dbe5" d="M 197.5,137.5 C 195.993,149.353 192.327,160.353 186.5,170.5C 185.833,171.167 185.167,171.833 184.5,172.5C 181.934,171.615 179.6,171.615 177.5,172.5C 182.018,164.471 185.685,156.137 188.5,147.5C 188.354,149.942 189.187,150.609 191,149.5C 191.333,150.833 191.667,152.167 192,153.5C 193.872,147.929 195.705,142.595 197.5,137.5 Z"/></g>
<g><path style="opacity:1" fill="#111338" d="M 30.5,135.5 C 30.5,135.833 30.5,136.167 30.5,136.5C 31.1251,139.627 32.1251,142.627 33.5,145.5C 33.5516,148.346 34.5516,150.68 36.5,152.5C 36.9802,155.443 37.9802,158.11 39.5,160.5C 47.6889,175.69 59.6889,186.69 75.5,193.5C 80.803,196.308 86.4697,198.308 92.5,199.5C 91.4019,200.397 91.4019,201.23 92.5,202C 92,202.167 91.5,202.333 91,202.5C 89.5838,201.427 88.2504,201.427 87,202.5C 86.5172,201.552 86.3505,200.552 86.5,199.5C 83.7814,199.603 81.1147,199.269 78.5,198.5C 76.6682,199.821 74.6682,200.821 72.5,201.5C 54.2163,192.883 40.5497,179.549 31.5,161.5C 27.5951,151.88 25.2618,141.88 24.5,131.5C 23.717,126.264 25.217,121.93 29,118.5C 29.1728,124.348 29.6728,130.015 30.5,135.5 Z"/></g>
<g><path style="opacity:1" fill="#a38cec" d="M 39.5,160.5 C 41.7638,161.219 44.0971,161.552 46.5,161.5C 49.2721,163.063 51.9388,164.896 54.5,167C 58.7946,167.912 63.1279,168.579 67.5,169C 68.756,169.417 69.4226,170.25 69.5,171.5C 67.9157,172.382 66.249,173.215 64.5,174C 65.056,174.383 65.3893,174.883 65.5,175.5C 67.1507,177.124 69.1507,178.457 71.5,179.5C 72.3857,180.325 72.719,181.325 72.5,182.5C 68.0911,181.528 63.9244,179.862 60,177.5C 60.0187,179.107 60.1854,180.774 60.5,182.5C 64.3364,182.737 67.0031,184.737 68.5,188.5C 70.396,189.466 72.396,189.799 74.5,189.5C 74.4326,190.959 74.7659,192.292 75.5,193.5C 59.6889,186.69 47.6889,175.69 39.5,160.5 Z"/></g>
<g><path style="opacity:1" fill="#0b1138" d="M 82.5,137.5 C 82.0252,145.312 82.6918,152.979 84.5,160.5C 87.4308,164.504 86.4308,167.337 81.5,169C 83.6182,171.142 86.1182,172.642 89,173.5C 99.3271,172.26 109.66,172.26 120,173.5C 123.798,171.556 127.798,171.556 132,173.5C 134.791,172.594 137.624,171.927 140.5,171.5C 139.158,172.793 137.491,173.626 135.5,174C 125.172,174.5 114.839,174.666 104.5,174.5C 98.8333,174.5 93.1667,174.5 87.5,174.5C 84.6733,173.581 82.34,171.914 80.5,169.5C 78.6437,165.936 76.9771,162.269 75.5,158.5C 75.7798,150.981 76.1131,143.481 76.5,136C 74.5417,130.148 74.5417,124.148 76.5,118C 76.507,116.417 76.1737,114.751 75.5,113C 76.8646,111.318 78.3646,111.151 80,112.5C 79.8856,119.155 79.3856,125.821 78.5,132.5C 78.8335,134.992 80.1668,136.659 82.5,137.5 Z"/></g>
<g><path style="opacity:0.948" fill="#6ecdf2" d="M 184.5,172.5 C 184.5,172.833 184.5,173.167 184.5,173.5C 182.557,176.78 180.223,179.78 177.5,182.5C 174.918,182.975 172.918,182.308 171.5,180.5C 173.167,177.833 174.833,175.167 176.5,172.5C 176.833,172.5 177.167,172.5 177.5,172.5C 179.6,171.615 181.934,171.615 184.5,172.5 Z"/></g>
<g><path style="opacity:0.008" fill="#0c20ac" d="M 186.5,170.5 C 186.715,172.179 186.048,173.179 184.5,173.5C 184.5,173.167 184.5,172.833 184.5,172.5C 185.167,171.833 185.833,171.167 186.5,170.5 Z"/></g>
<g><path style="opacity:1" fill="#e987e9" d="M 158.5,181.5 C 155.463,179.814 154.13,180.814 154.5,184.5C 146.364,182.043 138.197,182.043 130,184.5C 125.475,182.901 120.975,181.068 116.5,179C 113.167,178.667 109.833,178.333 106.5,178C 109.5,177.667 112.5,177.333 115.5,177C 110.167,176.667 104.833,176.333 99.5,176C 101.382,175.802 103.048,175.302 104.5,174.5C 114.839,174.666 125.172,174.5 135.5,174C 137.491,173.626 139.158,172.793 140.5,171.5C 141.167,171.5 141.833,171.5 142.5,171.5C 145.477,170.929 148.31,169.929 151,168.5C 152.313,169.573 153.813,170.24 155.5,170.5C 157.473,169.669 159.473,169.502 161.5,170C 161.959,171.943 160.959,173.276 158.5,174C 159.939,174.991 160.939,176.324 161.5,178C 159.144,178.155 156.811,178.155 154.5,178C 156.319,178.74 157.652,179.907 158.5,181.5 Z"/></g>
<g><path style="opacity:1" fill="#d689ed" d="M 87.5,174.5 C 93.1667,174.5 98.8333,174.5 104.5,174.5C 103.048,175.302 101.382,175.802 99.5,176C 104.833,176.333 110.167,176.667 115.5,177C 112.5,177.333 109.5,177.667 106.5,178C 109.833,178.333 113.167,178.667 116.5,179C 120.975,181.068 125.475,182.901 130,184.5C 138.197,182.043 146.364,182.043 154.5,184.5C 154.13,180.814 155.463,179.814 158.5,181.5C 155.09,185.238 151.09,188.238 146.5,190.5C 143.603,190.788 140.77,191.455 138,192.5C 136.564,192.441 135.231,192.108 134,191.5C 132.806,192.43 131.473,193.097 130,193.5C 125.602,191.942 121.102,190.776 116.5,190C 119.167,189.333 119.167,188.667 116.5,188C 113.24,187.216 110.073,187.383 107,188.5C 106.033,187.322 105.533,185.989 105.5,184.5C 102.837,183.808 100.337,182.808 98,181.5C 96.8558,181.911 95.6891,182.244 94.5,182.5C 91.1744,180.36 87.5078,179.36 83.5,179.5C 82.7564,176.05 84.0897,174.384 87.5,174.5 Z"/></g>
<g><path style="opacity:1" fill="#9782eb" d="M 72.5,182.5 C 75.5162,183.343 78.1829,184.843 80.5,187C 83.146,187.497 85.8127,187.664 88.5,187.5C 88.3537,189.942 89.187,190.609 91,189.5C 91.7504,190.126 92.5838,190.626 93.5,191C 93.1667,191.333 92.8333,191.667 92.5,192C 95.8482,191.915 98.0148,193.415 99,196.5C 100.268,196.384 101.602,196.051 103,195.5C 103.692,196.025 104.192,196.692 104.5,197.5C 110.489,198.356 116.489,199.023 122.5,199.5C 122.158,200.338 121.492,200.672 120.5,200.5C 111.134,200.721 101.801,200.387 92.5,199.5C 86.4697,198.308 80.803,196.308 75.5,193.5C 74.7659,192.292 74.4326,190.959 74.5,189.5C 72.396,189.799 70.396,189.466 68.5,188.5C 67.0031,184.737 64.3364,182.737 60.5,182.5C 60.1854,180.774 60.0187,179.107 60,177.5C 63.9244,179.862 68.0911,181.528 72.5,182.5 Z"/></g>
<g><path style="opacity:1" fill="#ae81ef" d="M 126.5,198.5 C 125.292,199.234 123.959,199.567 122.5,199.5C 116.489,199.023 110.489,198.356 104.5,197.5C 104.192,196.692 103.692,196.025 103,195.5C 101.602,196.051 100.268,196.384 99,196.5C 98.0148,193.415 95.8482,191.915 92.5,192C 92.8333,191.667 93.1667,191.333 93.5,191C 92.5838,190.626 91.7504,190.126 91,189.5C 89.187,190.609 88.3537,189.942 88.5,187.5C 85.8127,187.664 83.146,187.497 80.5,187C 78.1829,184.843 75.5162,183.343 72.5,182.5C 72.719,181.325 72.3857,180.325 71.5,179.5C 69.1507,178.457 67.1507,177.124 65.5,175.5C 71.2846,174.82 76.2846,176.654 80.5,181C 87.8802,182.464 94.8802,184.131 101.5,186C 103.543,187.708 105.21,189.708 106.5,192C 108.764,192.236 110.931,192.736 113,193.5C 113.333,193.167 113.667,192.833 114,192.5C 116.6,194.891 119.267,194.891 122,192.5C 123.399,193.227 124.899,193.727 126.5,194C 125.587,195.414 125.587,196.914 126.5,198.5 Z"/></g>
<g><path style="opacity:1" fill="#13133a" d="M 176.5,172.5 C 174.833,175.167 173.167,177.833 171.5,180.5C 164.307,189.019 155.641,195.686 145.5,200.5C 144.5,200.5 143.5,200.5 142.5,200.5C 142.498,196.459 141.165,195.792 138.5,198.5C 137.158,197.098 136.324,197.431 136,199.5C 135.439,198.978 134.772,198.645 134,198.5C 129.612,201.198 125.112,201.865 120.5,200.5C 121.492,200.672 122.158,200.338 122.5,199.5C 123.959,199.567 125.292,199.234 126.5,198.5C 133.625,196.796 140.292,194.129 146.5,190.5C 151.09,188.238 155.09,185.238 158.5,181.5C 165.551,176.1 171.218,169.434 175.5,161.5C 177.373,160.137 179.039,158.47 180.5,156.5C 180.833,157.167 181.167,157.833 181.5,158.5C 179.414,163.095 177.748,167.762 176.5,172.5 Z"/></g>
<g><path style="opacity:1" fill="#bb84ee" d="M 77.5,167.5 C 78.5,168.167 79.5,168.833 80.5,169.5C 82.34,171.914 84.6733,173.581 87.5,174.5C 84.0897,174.384 82.7564,176.05 83.5,179.5C 87.5078,179.36 91.1744,180.36 94.5,182.5C 95.6891,182.244 96.8558,181.911 98,181.5C 100.337,182.808 102.837,183.808 105.5,184.5C 105.533,185.989 106.033,187.322 107,188.5C 110.073,187.383 113.24,187.216 116.5,188C 119.167,188.667 119.167,189.333 116.5,190C 121.102,190.776 125.602,191.942 130,193.5C 131.473,193.097 132.806,192.43 134,191.5C 135.231,192.108 136.564,192.441 138,192.5C 140.77,191.455 143.603,190.788 146.5,190.5C 140.292,194.129 133.625,196.796 126.5,198.5C 125.587,196.914 125.587,195.414 126.5,194C 124.899,193.727 123.399,193.227 122,192.5C 119.267,194.891 116.6,194.891 114,192.5C 113.667,192.833 113.333,193.167 113,193.5C 110.931,192.736 108.764,192.236 106.5,192C 105.21,189.708 103.543,187.708 101.5,186C 94.8802,184.131 87.8802,182.464 80.5,181C 76.2846,176.654 71.2846,174.82 65.5,175.5C 65.3893,174.883 65.056,174.383 64.5,174C 66.249,173.215 67.9157,172.382 69.5,171.5C 71.7463,170.79 74.0796,170.29 76.5,170C 77.2524,169.329 77.5858,168.496 77.5,167.5 Z"/></g>
<g><path style="opacity:0.965" fill="#7891f0" d="M 171.5,180.5 C 172.918,182.308 174.918,182.975 177.5,182.5C 175.118,186.199 172.451,189.532 169.5,192.5C 164.431,195.695 159.765,199.362 155.5,203.5C 152.167,204.833 148.833,206.167 145.5,207.5C 144.417,207.461 143.417,207.127 142.5,206.5C 139.916,208.988 138.25,208.321 137.5,204.5C 140.167,203.167 142.833,201.833 145.5,200.5C 155.641,195.686 164.307,189.019 171.5,180.5 Z"/></g>
<g><path style="opacity:0.088" fill="#010005" d="M 169.5,192.5 C 169.5,193.833 169.5,195.167 169.5,196.5C 168.178,196.33 167.011,196.663 166,197.5C 163.836,201.398 161.669,205.398 159.5,209.5C 158.143,207.435 156.81,205.435 155.5,203.5C 159.765,199.362 164.431,195.695 169.5,192.5 Z"/></g>
<g><path style="opacity:1" fill="#688dee" d="M 22.5,155.5 C 23.7709,157.109 24.7709,158.942 25.5,161C 27.6023,160.744 29.6023,160.911 31.5,161.5C 40.5497,179.549 54.2163,192.883 72.5,201.5C 72.5,201.833 72.5,202.167 72.5,202.5C 69.6105,204.496 69.9438,205.996 73.5,207C 72.552,207.483 71.552,207.649 70.5,207.5C 52.4455,199.284 38.2788,186.617 28,169.5C 25.3156,165.137 23.4822,160.47 22.5,155.5 Z"/></g>
<g><path style="opacity:1" fill="#0e113a" d="M 145.5,200.5 C 142.833,201.833 140.167,203.167 137.5,204.5C 122.155,209.581 106.488,210.748 90.5,208C 84.5732,205.853 78.5732,204.019 72.5,202.5C 72.5,202.167 72.5,201.833 72.5,201.5C 74.6682,200.821 76.6682,199.821 78.5,198.5C 81.1147,199.269 83.7814,199.603 86.5,199.5C 86.3505,200.552 86.5172,201.552 87,202.5C 88.2504,201.427 89.5838,201.427 91,202.5C 91.5,202.333 92,202.167 92.5,202C 91.4019,201.23 91.4019,200.397 92.5,199.5C 101.801,200.387 111.134,200.721 120.5,200.5C 125.112,201.865 129.612,201.198 134,198.5C 134.772,198.645 135.439,198.978 136,199.5C 136.324,197.431 137.158,197.098 138.5,198.5C 141.165,195.792 142.498,196.459 142.5,200.5C 143.5,200.5 144.5,200.5 145.5,200.5 Z"/></g>
<g><path style="opacity:1" fill="#817bf2" d="M 72.5,202.5 C 78.5732,204.019 84.5732,205.853 90.5,208C 106.488,210.748 122.155,209.581 137.5,204.5C 138.25,208.321 139.916,208.988 142.5,206.5C 143.417,207.127 144.417,207.461 145.5,207.5C 120.496,219.445 95.4964,219.445 70.5,207.5C 71.552,207.649 72.552,207.483 73.5,207C 69.9438,205.996 69.6105,204.496 72.5,202.5 Z"/></g>
<g><path style="opacity:0.004" fill="#e5fff4" d="M 53.5,219.5 C 59.1047,220.661 59.4381,221.995 54.5,223.5C 53.5713,222.311 53.238,220.978 53.5,219.5 Z"/></g>
</svg>
